PERFORMER "Steve Mac"
TITLE "Essential Mix (2008-10-25) [TMB]"
FILE "Essential Mix - 2008-10-25 - Steve Mac.mp3" MP3
 TRACK 01 AUDIO
   PERFORMER "Essential Mix"
   TITLE "Intro"
   INDEX 01 00:00:00
 TRACK 02 AUDIO
   PERFORMER "Marc Houle"
   TITLE "Meatier Shower"
   INDEX 01 01:41:13
 TRACK 03 AUDIO
   PERFORMER "Tim Wright"
   TITLE "Thrist (Luciano Mix / Mac Re Edit)"
   INDEX 01 05:26:06
 TRACK 04 AUDIO
   PERFORMER "Sis"
   TITLE "Standing (Mac Re Edit)"
   INDEX 01 10:36:20
 TRACK 05 AUDIO
   PERFORMER "Matt Nordstrom"
   TITLE "Lucky Draw (Mac Mash Up)"
   INDEX 01 16:09:28
 TRACK 06 AUDIO
   PERFORMER "Unknown"
   TITLE "Sinner Man (Luciano Mix / Mac Mash Up)"
   INDEX 01 18:34:22
 TRACK 07 AUDIO
   PERFORMER "Sebo K"
   TITLE "Diva"
   INDEX 01 20:48:04
 TRACK 08 AUDIO
   PERFORMER "Basement Jaxx"
   TITLE "Flyfile (Mac Re Edit)"
   INDEX 01 24:36:23
 TRACK 09 AUDIO
   PERFORMER "Unknown"
   TITLE "Unknown"
   INDEX 01 27:49:03
 TRACK 10 AUDIO
   PERFORMER "Loco Dice"
   TITLE "Pimp Jackson Is Talking Now"
   INDEX 01 28:27:06
 TRACK 11 AUDIO
   PERFORMER "Robert Babicz"
   TITLE "Dark Flower (Joris Voorn Mix)"
   INDEX 01 29:58:19
 TRACK 12 AUDIO
   PERFORMER "Ricardo Villalobos"
   TITLE "Enfants"
   INDEX 01 33:16:19
 TRACK 13 AUDIO
   PERFORMER "Radio Slave"
   TITLE "Unknown"
   INDEX 01 36:50:02
 TRACK 14 AUDIO
   PERFORMER "Masters At Work"
   TITLE "Love And Happiness"
   INDEX 01 38:52:00
 TRACK 15 AUDIO
   PERFORMER "DJ Koze"
   TITLE "I Want To Sleep"
   INDEX 01 40:23:12
 TRACK 16 AUDIO
   PERFORMER "Cirez D"
   TITLE "Teaser (Deadmau 5 Mix)"
   INDEX 01 42:25:08
 TRACK 17 AUDIO
   PERFORMER "Dubfire"
   TITLE "Diosa (Mac Exclusive Re Edit)"
   INDEX 01 45:12:27
 TRACK 18 AUDIO
   PERFORMER "Sis"
   TITLE "Trompet (Mac Re Edit)"
   INDEX 01 50:17:21
 TRACK 19 AUDIO
   PERFORMER "Timo Mass And Santos"
   TITLE "Subtellite (Mac Re Edit)"
   INDEX 01 53:05:09
 TRACK 20 AUDIO
   PERFORMER "Mac And Fancuilli"
   TITLE "Untitled"
   INDEX 01 60:00:17
 TRACK 21 AUDIO
   PERFORMER "Joris Voorn"
   TITLE "No Revolution (Technasia Remix 1)"
   INDEX 01 67:52:29
 TRACK 22 AUDIO
   PERFORMER "Dan Drastic"
   TITLE "Slice Of Life (Johnny D Remix)"
   INDEX 01 72:04:12
 TRACK 23 AUDIO
   PERFORMER "Radio Slave"
   TITLE "Eyes Wide Open"
   INDEX 01 74:52:00
 TRACK 24 AUDIO
   PERFORMER "Johnny D"
   TITLE "Manipulation"
   INDEX 01 81:13:00
 TRACK 25 AUDIO
   PERFORMER "Jamie Principal"
   TITLE "Baby Wants To Ride (Mac Re Edit)"
   INDEX 01 84:15:23
 TRACK 26 AUDIO
   PERFORMER "Morgan Geist"
   TITLE "Detroit (Carl Craig Remix)"
   INDEX 01 87:56:23
 TRACK 27 AUDIO
   PERFORMER "Gel Abril"
   TITLE "Spells Of Yoruba"
   INDEX 01 91:37:23
 TRACK 28 AUDIO
   PERFORMER "Gel Abril"
   TITLE "Very Wrong (Chaim Remix / Mac Re Edit)"
   INDEX 01 94:10:04
 TRACK 29 AUDIO
   PERFORMER "Guido Schneider"
   TITLE "Albertino"
   INDEX 01 96:23:29
 TRACK 30 AUDIO
   PERFORMER "Luca And Paul"
   TITLE "Dinamicro (Gregor Tresher Remix)"
   INDEX 01 101:28:08
 TRACK 31 AUDIO
   PERFORMER "Steve Mac"
   TITLE "Gotta Have Some Fun (Prudo Mix)"
   INDEX 01 104:31:03
 TRACK 32 AUDIO
   PERFORMER "Steve Mac"
   TITLE "Gotta Have Some Fun (Original Mix)"
   INDEX 01 106:32:28
 TRACK 33 AUDIO
   PERFORMER "Steve Mac"
   TITLE "Scatter Brain"
   INDEX 01 108:34:28
 TRACK 34 AUDIO
   PERFORMER "Steve Mac And Mark Brown"
   TITLE "The Fly (Exclusive)"
   INDEX 01 110:21:22
 TRACK 35 AUDIO
   PERFORMER "Surkin"
   TITLE "White Knight Two (Mac Re Edit)"
   INDEX 01 115:11:03
